<?xml version="1.0" standalone="no"?><!DOCTYPE svg PUBLIC "-//W3C//DTD SVG 1.1//EN" "http://www.w3.org/Graphics/SVG/1.1/DTD/svg11.dtd"><svg t="1747382733215" class="icon" viewBox="0 0 1024 1024" version="1.1" xmlns="http://www.w3.org/2000/svg" p-id="25147" xmlns:xlink="http://www.w3.org/1999/xlink" width="24" height="24"><path d="M604.064 488.736c2.88 0 5.696 0.256 8.64 0.832l4.448 1.088 3.552 1.216 128.352 50.176c7.296 2.88 13.696 7.584 18.816 13.856l2.944 3.936 2.144 3.616 62.432 117.12c5.856 10.88 7.2 23.584 3.776 35.456a46.464 46.464 0 0 1-22.112 27.776 45.44 45.44 0 0 1-57.728-11.328l-2.816-3.84-2.08-3.52-54.496-102.016-66.464-26.016 36.768 99.232c5.28 14.08 3.488 29.664-4.608 42.208l-2.624 3.648-2.72 3.2-3.136 2.976-123.904 107.232-64.768 141.344c-6.432 14.08-19.136 23.712-33.728 26.336l-4.032 0.544-4.064 0.192a46.368 46.368 0 0 1-44.832-57.504l1.28-4.544 1.728-4.32 69.024-150.56c1.536-3.456 3.52-6.72 6.016-9.824l2.688-3.072 3.168-3.008 106.88-92.544-54.272-146.56a47.04 47.04 0 0 1 0.704-35.168l1.984-4.064 2.4-3.84c6.72-10.016 16.992-16.864 28.96-19.328l4.544-0.704 4.448-0.224h42.688z m87.68 265.856h4.288l161.6 170.112c17.632 18.56 17.184 48.064-1.088 66.08-8.736 8.512-20.288 13.12-32.128 13.12a45.44 45.44 0 0 1-26.816-8.736l-3.36-2.656-3.072-2.976-167.936-176.672 50.624-43.776c2.432-2.08 4.736-4.352 6.88-6.816l3.104-3.744 7.904-3.936z m-307.2-150.336l115.04-27.232 32.64 88.224-126.592 29.92a41.184 41.184 0 0 1-8.736 0.896 46.368 46.368 0 0 1-45.248-38.208c-2.24-12.16 0.352-24.704 7.232-34.944 5.152-7.68 12.416-13.568 21.152-17.088l4.48-1.6zM185.024 299.68l5.024 8.768c60.16 105.216 167.296 174.592 285.856 186.24l9.408 0.768 11.52 0.832-2.528 11.264c-3.84 17.28-5.248 30.496-4.288 39.36l0.48 3.136 2.528 12.8-13.024-0.96c-137.184-10.08-262.4-85.632-336.832-203.072l-5.216-8.448L128 333.44l57.056-33.728z m648.8 6.56l4.96-8.8L896 330.624l-4.8 8.544a441.216 441.216 0 0 1-139.04 150.304l-10.208 6.656-9.984 6.144-5.216 1.44-3.616-0.64-79.2-30.848 21.12-9.824a374.976 374.976 0 0 0 163.648-147.296l5.152-8.864z m-321.792-1.632c49.184 0 88.96 40.48 88.96 90.336a90.592 90.592 0 0 1-44.416 78.176 87.808 87.808 0 0 1-89.088 0 90.592 90.592 0 0 1-44.416-78.176c0-49.856 39.776-90.336 88.96-90.336zM301.6 230.912l5.056 8.736a239.68 239.68 0 0 0 88.704 88.672l7.968 4.352 8.32 4.352-3.872 8.544a121.216 121.216 0 0 0-9.888 35.52l-0.64 7.36-1.024 17.568-14.528-9.92c-60.48-41.216-102.176-78.464-125.216-112.224l-3.648-5.6-8.16-13.6 56.96-33.76z m415.04 7.008l4.992-8.8 57.152 33.408-4.8 8.512a305.76 305.76 0 0 1-123.776 120.32l-9.184 4.672-12.16 5.856-2.016-13.312c-2.848-18.304-6.08-31.968-9.6-40.768l-1.312-3.072-4.032-8.576 8.384-4.448a238.4 238.4 0 0 0 91.68-85.888l4.672-7.904zM599.744 169.92l4.992-8.768 57.152 33.408-4.832 8.544a168.736 168.736 0 0 1-131.328 85.12l-6.848 0.48-7.616 0.16a167.36 167.36 0 0 1-137.536-73.12l-3.84-5.76-8.64-14.432 57.12-33.76 5.024 8.736a102.08 102.08 0 0 0 76.416 50.88l5.952 0.512 5.952 0.16a101.76 101.76 0 0 0 85.056-47.168l2.976-4.992zM581.12 0c20.8 0 38.272 15.04 42.144 35.616l0.544 3.904 0.192 3.936v53.6c0 20.96-14.784 38.72-35.104 42.656l-3.904 0.576-3.872 0.192h-138.112c-20.8 0-38.24-15.04-42.112-35.584l-0.576-3.936-0.192-3.904V43.424c0.032-20.96 14.784-38.72 35.136-42.656l3.84-0.576 3.904-0.192h138.112z" fill="#ffffff" p-id="25148"></path></svg>