<?xml version="1.0" standalone="no"?><!DOCTYPE svg PUBLIC "-//W3C//DTD SVG 1.1//EN" "http://www.w3.org/Graphics/SVG/1.1/DTD/svg11.dtd"><svg t="1747382133908" class="icon" viewBox="0 0 1024 1024" version="1.1" xmlns="http://www.w3.org/2000/svg" p-id="8507" xmlns:xlink="http://www.w3.org/1999/xlink" width="24" height="24"><path d="M350.72 965.376c-60.0064-126.4128-28.450133-199.048533 18.926933-265.352533 50.5856-75.8272 63.214933-148.462933 63.214934-148.462934s41.0624 50.5856 25.2416 132.727467c69.512533-79.035733 82.141867-205.346133 72.635733-252.740267 157.969067 110.592 227.4816 353.911467 135.8336 530.807467 486.536533-278.0672 120.098133-691.899733 56.900267-736.170667 22.135467 47.377067 25.2416 126.4128-18.926934 164.283734-72.6528-278.152533-252.757333-331.844267-252.757333-331.844267 22.135467 142.148267-75.8272 297.0112-170.5984 413.9008-3.208533-56.900267-6.314667-94.7712-37.870933-151.6544-6.314667 104.277333-85.3504 186.4192-107.383467 290.696533-28.450133 142.148267 22.050133 243.217067 214.784 353.809067z" p-id="8508" fill="#ffffff"></path></svg>