<?xml version="1.0" standalone="no"?><!DOCTYPE svg PUBLIC "-//W3C//DTD SVG 1.1//EN" "http://www.w3.org/Graphics/SVG/1.1/DTD/svg11.dtd"><svg t="1747382016247" class="icon" viewBox="0 0 1024 1024" version="1.1" xmlns="http://www.w3.org/2000/svg" p-id="5969" xmlns:xlink="http://www.w3.org/1999/xlink" width="24" height="24"><path d="M477.414819 451.960227H318.627079a68.328375 68.328375 0 0 1-68.244227-68.244227V270.452461A68.244227 68.244227 0 0 1 318.627079 201.955789h158.78774a68.244227 68.244227 0 0 1 68.244227 68.160079v113.600132a68.328375 68.328375 0 0 1-68.244227 68.244227z m-158.78774-201.955789a20.532172 20.532172 0 0 0-20.195579 20.448023V383.716a20.61632 20.61632 0 0 0 20.195579 20.195579h158.78774a20.61632 20.61632 0 0 0 20.532172-20.532172V270.452461a20.532172 20.532172 0 0 0-20.532172-20.448023z" p-id="5970" fill="#ffffff"></path><path d="M528.408655 1024h-260.859561A129.251705 129.251705 0 0 1 138.549834 894.916591v-765.749034A129.251705 129.251705 0 0 1 267.633243 0h260.859561a129.251705 129.251705 0 0 1 128.99926 129.083409v765.749034a129.251705 129.251705 0 0 1-129.083409 129.167557z m-260.859561-976.119648a81.455502 81.455502 0 0 0-81.371353 81.371353v765.749035a81.455502 81.455502 0 0 0 81.455502 81.118908h260.859561a81.455502 81.455502 0 0 0 81.287205-81.203057v-765.749034a81.455502 81.455502 0 0 0-81.371354-81.371354zM821.076253 1024h-45.944942A64.457556 64.457556 0 0 1 710.757904 959.289999V64.373408A64.457556 64.457556 0 0 1 775.131311 0h45.944942a64.457556 64.457556 0 0 1 64.373408 64.373408V959.289999a64.457556 64.457556 0 0 1-64.373408 64.710001z m-45.944942-976.119648a16.829649 16.829649 0 0 0-16.829649 16.829649V959.289999a16.829649 16.829649 0 0 0 16.829649 16.829649h45.944942a16.829649 16.829649 0 0 0 16.82965-16.829649V64.373408a16.829649 16.829649 0 0 0-16.82965-16.829649z" fill="#ffffff" p-id="5971"></path></svg>