<?xml version="1.0" standalone="no"?><!DOCTYPE svg PUBLIC "-//W3C//DTD SVG 1.1//EN" "http://www.w3.org/Graphics/SVG/1.1/DTD/svg11.dtd"><svg t="1741396362681" class="icon" viewBox="0 0 1024 1024" version="1.1" xmlns="http://www.w3.org/2000/svg" p-id="5077" width="48" height="48" xmlns:xlink="http://www.w3.org/1999/xlink"><path d="M780.89 630.22c-67.969 0-127.463 36.353-161.562 91.009l-205.62-120.576A197.35 197.35 0 0 0 435.188 512c0-19.84-3.635-38.502-9.011-56.602l213.862-125.44c35.098 39.04 84.915 63.872 140.8 63.872 105.907 0 191.949-88.192 191.949-196.915S886.77 0 780.813 0c-106.061 0-191.95 88.192-191.95 196.915 0 19.84 3.687 38.58 8.96 56.602L383.91 378.88c-35.097-39.014-84.915-63.795-140.723-63.795-106.035 0-192 88.115-192 196.915s85.965 196.915 191.974 196.915c43.776 0 83.661-15.667 115.943-40.883l-0.768 1.357L590.912 805.76c-0.87 7.014-2.048 13.952-2.048 21.453 0 108.544 85.888 196.787 191.949 196.787 105.958 0 191.974-88.243 191.974-196.787 0.051-108.851-85.965-196.992-191.898-196.992z m0-551.526c63.564 0 115.25 52.941 115.25 118.17 0 65.28-51.686 118.144-115.25 118.144-63.693 0-115.252-52.89-115.252-118.144 0-65.229 51.559-118.17 115.251-118.17zM243.186 630.221c-63.642 0-115.123-52.89-115.123-118.221 0-65.28 51.558-118.17 115.123-118.17 63.642 0 115.2 52.89 115.2 118.17 0 65.331-51.558 118.22-115.2 118.22z m537.677 315.136c-63.693 0-115.251-52.992-115.251-118.093 0-65.46 51.558-118.349 115.25-118.349 63.566 0 115.252 52.89 115.252 118.349 0 65.1-51.686 118.118-115.251 118.118z" p-id="5078" fill="#ffffff"></path></svg>