<?xml version="1.0" standalone="no"?><!DOCTYPE svg PUBLIC "-//W3C//DTD SVG 1.1//EN" "http://www.w3.org/Graphics/SVG/1.1/DTD/svg11.dtd"><svg t="1741417305136" class="icon" viewBox="0 0 1024 1024" version="1.1" xmlns="http://www.w3.org/2000/svg" p-id="7042" xmlns:xlink="http://www.w3.org/1999/xlink" width="128" height="128"><path d="M0 511.999716a511.999716 511.999716 0 1 0 1023.999431 0A511.999716 511.999716 0 0 0 0 511.999716z" fill="#DBE6FE" p-id="7043"></path><path d="M511.999716 191.999893a191.999893 191.999893 0 1 1 0 383.999787 191.999893 191.999893 0 0 1 0-383.999787zM511.999716 1023.999431a509.155273 509.155273 0 0 1-319.999823-112.639937v-47.33153c0-176.639902 143.35992-224.02832 319.999823-224.02832s319.999822 47.388418 319.999822 224.02832v47.33153A509.155273 509.155273 0 0 1 511.999716 1023.999431z" fill="#4C84FC" p-id="7044"></path></svg>