<?xml version="1.0" standalone="no"?><!DOCTYPE svg PUBLIC "-//W3C//DTD SVG 1.1//EN" "http://www.w3.org/Graphics/SVG/1.1/DTD/svg11.dtd"><svg t="1747382384128" class="icon" viewBox="0 0 1024 1024" version="1.1" xmlns="http://www.w3.org/2000/svg" p-id="14687" xmlns:xlink="http://www.w3.org/1999/xlink" width="24" height="24"><path d="M896 85.333333H128C55.466667 85.333333 0 140.8 0 213.333333v597.333334c0 72.533333 55.466667 128 128 128h768c72.533333 0 128-55.466667 128-128V213.333333c0-72.533333-55.466667-128-128-128z m42.666667 725.333334c0 25.6-17.066667 42.666667-42.666667 42.666666H128c-25.6 0-42.666667-17.066667-42.666667-42.666666V213.333333c0-25.6 17.066667-42.666667 42.666667-42.666666h768c25.6 0 42.666667 17.066667 42.666667 42.666666v597.333334z" p-id="14688" fill="#ffffff"></path><path d="M213.333333 477.866667h298.666667c17.066667 0 34.133333-12.8 34.133333-34.133334v-170.666666c0-17.066667-12.8-34.133333-34.133333-34.133334H213.333333c-17.066667 0-34.133333 12.8-34.133333 34.133334v170.666666c0 21.333333 17.066667 34.133333 34.133333 34.133334z m34.133334-170.666667h234.666666v106.666667H247.466667V307.2zM810.666667 247.466667h-128c-17.066667 0-34.133333 12.8-34.133334 34.133333s12.8 34.133333 34.133334 34.133333h128c17.066667 0 34.133333-12.8 34.133333-34.133333s-17.066667-34.133333-34.133333-34.133333zM810.666667 418.133333h-128c-17.066667 0-34.133333 12.8-34.133334 34.133334s12.8 34.133333 34.133334 34.133333h128c17.066667 0 34.133333-12.8 34.133333-34.133333s-17.066667-34.133333-34.133333-34.133334zM277.333333 588.8c-51.2 0-93.866667 42.666667-93.866666 93.866667s42.666667 93.866667 93.866666 93.866666 93.866667-42.666667 93.866667-93.866666-42.666667-93.866667-93.866667-93.866667z m0 128c-17.066667 0-34.133333-12.8-34.133333-34.133333s12.8-34.133333 34.133333-34.133334 34.133333 12.8 34.133334 34.133334-17.066667 34.133333-34.133334 34.133333zM554.666667 588.8c-51.2 0-93.866667 42.666667-93.866667 93.866667s42.666667 93.866667 93.866667 93.866666 93.866667-42.666667 93.866666-93.866666-42.666667-93.866667-93.866666-93.866667z m0 128c-17.066667 0-34.133333-12.8-34.133334-34.133333s12.8-34.133333 34.133334-34.133334 34.133333 12.8 34.133333 34.133334-17.066667 34.133333-34.133333 34.133333z" p-id="14689" fill="#ffffff"></path></svg>