<?xml version="1.0" standalone="no"?><!DOCTYPE svg PUBLIC "-//W3C//DTD SVG 1.1//EN" "http://www.w3.org/Graphics/SVG/1.1/DTD/svg11.dtd"><svg t="1747382445361" class="icon" viewBox="0 0 1024 1024" version="1.1" xmlns="http://www.w3.org/2000/svg" p-id="15779" xmlns:xlink="http://www.w3.org/1999/xlink" width="24" height="24"><path d="M924.00128 808.77056a30.81728 30.81728 0 0 0-40.38144 16.3584 113.024 113.024 0 0 1-104.12032 68.99712 112.95744 112.95744 0 0 1-104.70912-70.4768 30.80192 30.80192 0 0 0-40.13056-16.96256 30.58688 30.58688 0 0 0-14.07488 11.52512c-1.64352 2.0992-3.13344 4.36224-4.224 6.93248a112.95232 112.95232 0 0 1-104.08448 68.98176c-45.32224 0-85.47328-27.00288-103.32672-67.60448-2.48832-8.91392-8.832-16.65024-18.07872-20.36736a30.80704 30.80704 0 0 0-40.06912 17.09568 112.9984 112.9984 0 0 1-104.89344 70.87616 112.98304 112.98304 0 0 1-105.22112-71.76704 30.80192 30.80192 0 0 0-57.36448 22.47168c25.98912 66.35008 90.12736 110.8992 162.5856 110.8992 52.58752 0 100.73088-23.52128 133.16608-61.77792 32.4352 38.272 80.60928 61.77792 133.1968 61.77792a174.4384 174.4384 0 0 0 133.63712-62.24896c32.4352 38.54336 80.78336 62.24896 133.58592 62.24896 70.77888 0 133.73952-42.51648 160.86016-106.58304a30.80704 30.80704 0 0 0-16.35328-40.37632zM389.5296 768.36864c-58.0608 0-116.11136-24.79104-156.58496-67.27168-82.67264-84.93056-82.67264-214.1184 0-320.31744l58.05568-74.3168c31.67744-40.71424 54.53824-70.79424 73.88672-90.25536l1.76128-1.77152c7.04512-7.08608 17.59744-10.61888 29.91104-8.84736 7.03488 1.76128 12.30848 3.52768 17.5872 8.84736 17.60256 21.23264 42.22976 51.31264 79.17056 97.34144L547.84 380.78464c80.94208 102.65088 80.94208 237.1584 0 320.31744-43.97056 42.47552-100.26496 67.26656-158.3104 67.26656z m-1.7664-500.84864c-14.07488 17.71008-33.4336 40.71424-56.29952 70.80448L273.41312 412.64128c-65.08544 84.9408-66.84672 185.83552-3.52256 251.29472 31.65696 31.88736 73.88672 51.33824 119.63392 51.33824 45.73696 0 87.94624-17.7152 119.62368-51.33824 63.31904-65.45408 61.568-168.1152-3.52768-251.29472l-54.528-69.00736c-28.15488-33.62304-47.50336-58.40384-63.32928-76.11392z m343.04512 123.89376c-31.67232 0-65.09056-12.40064-89.728-37.17632-47.488-47.77472-47.488-118.56384 0-178.73408a25973.20704 25973.20704 0 0 1 68.608-84.94592l19.33824-23.00928 19.36896 23.00928c22.87104 26.5472 51.01056 60.17536 70.35904 84.94592v1.77152c45.74208 49.55648 45.74208 127.42144 0 176.96256-24.63232 24.77568-56.27392 37.17632-87.94624 37.17632z m-1.77664-240.68608c-14.05952 15.92832-29.89056 35.38944-47.49824 60.16512-29.89056 37.16608-31.65184 79.6416-3.52256 107.95008 28.17024 28.3136 75.65824 28.3136 103.82848 0 26.35776-28.3136 26.35776-76.09856 0-104.41216l-1.78176-3.54304c-15.82592-19.456-33.42848-40.69376-51.02592-60.16z" p-id="15780" fill="#ffffff"></path><path d="M387.7632 658.64704c-7.04512 0-14.07488 0-21.12-1.792-14.07488-1.75104-24.6272-15.91808-22.86592-30.08512 1.75616-14.1312 15.8208-24.7552 29.91104-23.00928 17.59744 1.80736 29.9008 0 38.69184-5.27872 8.79616-7.09632 14.08-19.46112 15.84128-37.17632 1.76128-14.17728 15.83104-24.78592 29.90592-23.00416 14.07488 1.75104 24.6272 15.90784 22.8608 30.09024-5.27872 31.82592-17.5872 56.6272-36.93568 72.54528-14.06976 10.624-33.42336 17.71008-56.28928 17.71008z" p-id="15781" fill="#ffffff"></path></svg>