<?xml version="1.0" standalone="no"?><!DOCTYPE svg PUBLIC "-//W3C//DTD SVG 1.1//EN" "http://www.w3.org/Graphics/SVG/1.1/DTD/svg11.dtd"><svg t="1741673166280" class="icon" viewBox="0 0 1024 1024" version="1.1" xmlns="http://www.w3.org/2000/svg" p-id="21794" width="64" height="64" xmlns:xlink="http://www.w3.org/1999/xlink"><path d="M687.36 304.32a240.64 240.64 0 1 0-410.88 170.24 244.48 244.48 0 0 0 24 21.12A376 376 0 0 0 72.32 841.6v3.84a39.68 39.68 0 1 0 79.68 0v-4.48A296.32 296.32 0 0 1 448 544a240.64 240.64 0 0 0 239.36-240.64z m-240.64 160a160 160 0 1 1 160-160A160 160 0 0 1 448 464.96z m276.8 34.24a230.4 230.4 0 1 0 230.4 230.4 230.4 230.4 0 0 0-230.4-229.76z m0 80.32a149.76 149.76 0 0 1 74.24 19.52l-3.52 3.2-198.4 198.4-3.2 3.52a150.4 150.4 0 0 1 130.56-224z m0 300.8a149.76 149.76 0 0 1-74.24-19.52l3.52-3.2 198.4-198.4 3.2-3.52a150.4 150.4 0 0 1-130.56 224z" fill="#86C6FF" p-id="21795"></path></svg>