<?xml version="1.0" standalone="no"?><!DOCTYPE svg PUBLIC "-//W3C//DTD SVG 1.1//EN" "http://www.w3.org/Graphics/SVG/1.1/DTD/svg11.dtd"><svg t="1741673333726" class="icon" viewBox="0 0 1024 1024" version="1.1" xmlns="http://www.w3.org/2000/svg" p-id="23405" xmlns:xlink="http://www.w3.org/1999/xlink" width="64" height="64"><path d="M436.906667 399.36c-5.12-95.573333 29.013333-189.44 93.866666-257.706667 3.413333-3.413333 3.413333-10.24 0-15.36-1.706667-1.706667-6.826667-3.413333-10.24-3.413333-208.213333 49.493333-336.213333 256-288.426666 464.213333s256 336.213333 464.213333 288.426667c100.693333-23.893333 187.733333-85.333333 240.64-174.08 3.413333-5.12 3.413333-11.946667-3.413333-17.066667-3.413333-3.413333-8.533333-3.413333-13.653334 0-58.026667 27.306667-121.173333 39.253333-184.32 32.426667-160.426667-18.773333-288.426667-151.893333-298.666666-317.44z" fill="#86c6ff" opacity=".15" p-id="23406"></path><path d="M484.693333 925.013333C286.72 925.013333 112.64 778.24 85.333333 576.853333c-30.72-221.866667 124.586667-424.96 344.746667-455.68 6.826667-1.706667 15.36 3.413333 17.066667 10.24 3.413333 6.826667 1.706667 15.36-5.12 20.48-73.386667 61.44-116.053333 151.893333-116.053334 247.466667 0 61.44 17.066667 121.173333 51.2 174.08 95.573333 150.186667 295.253333 194.56 445.44 98.986667 6.826667-3.413333 15.36-3.413333 20.48 1.706666 5.12 5.12 6.826667 13.653333 3.413334 20.48-56.32 122.88-172.373333 208.213333-307.2 226.986667-18.773333 1.706667-37.546667 3.413333-54.613334 3.413333zM378.88 167.253333c-170.666667 51.2-285.013333 221.866667-259.413333 402.773334C146.773333 773.12 332.8 914.773333 534.186667 887.466667c104.106667-13.653333 196.266667-71.68 254.293333-157.013334-157.013333 66.56-344.746667 10.24-440.32-138.24-35.84-58.026667-56.32-124.586667-56.32-191.146666 1.706667-87.04 32.426667-168.96 87.04-233.813334z" fill="#86c6ff" p-id="23407"></path><path d="M633.173333 518.826667h-85.333333c-6.826667 0-13.653333-3.413333-15.36-10.24-3.413333-6.826667-1.706667-13.653333 3.413333-18.773334l35.84-35.84h-17.066666c-10.24 0-17.066667-6.826667-17.066667-17.066666s6.826667-17.066667 17.066667-17.066667H614.4c6.826667 0 13.653333 3.413333 15.36 10.24 3.413333 6.826667 1.706667 13.653333-3.413333 18.773333l-35.84 35.84h44.373333c10.24 0 17.066667 6.826667 17.066667 17.066667s-8.533333 17.066667-18.773334 17.066667zM824.32 360.106667h-121.173333c-6.826667 0-13.653333-3.413333-15.36-10.24-3.413333-6.826667-1.706667-13.653333 3.413333-18.773334l64.853333-64.853333h-40.96c-10.24 0-17.066667-6.826667-17.066666-17.066667s6.826667-17.066667 17.066666-17.066666h83.626667c6.826667 0 13.653333 3.413333 15.36 10.24 3.413333 6.826667 1.706667 13.653333-3.413333 18.773333l-64.853334 64.853333h80.213334c10.24 0 17.066667 6.826667 17.066666 17.066667s-10.24 17.066667-18.773333 17.066667z" fill="#86c6ff" p-id="23408"></path></svg>