<?xml version="1.0" standalone="no"?><!DOCTYPE svg PUBLIC "-//W3C//DTD SVG 1.1//EN" "http://www.w3.org/Graphics/SVG/1.1/DTD/svg11.dtd"><svg t="1747382086876" class="icon" viewBox="0 0 1024 1024" version="1.1" xmlns="http://www.w3.org/2000/svg" p-id="7253" xmlns:xlink="http://www.w3.org/1999/xlink" width="24" height="24"><path d="M900.8 156H143.2c-10.4 0-18.8 8.4-18.8 18.8s8.4 18.8 18.8 18.8h55.6v140.8c0 4-0.8 7.6 1.6 11.2l74.8 105.6c3.6 4.8 8.4 7.6 14.4 7.6h8V524c0 38.4 31.2 71.6 69.6 71.6h310.4c38.4 0 66.8-33.2 66.8-71.6v-64.8h10.8c6 0 11.6-2.8 15.2-7.6l76-105.6c2.4-3.2 4-6.8 4-10.8V194h50.4c10.4 0 18.8-8.4 18.8-18.8 0.4-10.8-8.4-19.2-18.8-19.2z m-194.4 368c0 17.6-11.6 33.6-29.2 33.6H367.2c-17.6 0-32-16.4-32-33.6v-64.8h371.2V524z m106-195.2l-67.2 92.4H299.2L236.8 328.8V194h575.6v134.8z m0 0" fill="#ffffff" p-id="7254"></path><path d="M677.2 605.2H367.2c-43.2 0-79.6-37.2-79.6-81.6v-54.8c-8.4-0.4-15.2-4.8-20.4-11.6L192.4 351.6c-4-5.2-3.6-10.8-3.6-14.8V204H143.2c-16 0-28.8-12.8-28.8-28.8s12.8-28.8 28.8-28.8h757.6c16 0 28.8 12.8 28.8 28.8s-12.8 28.8-28.8 28.8h-40.4v130.8c0 5.6-2 11.2-5.6 16.8l-76.4 105.6c-5.2 7.6-14 12-23.6 12h-0.8V524c0.4 44.8-34.4 81.2-76.8 81.2zM208.8 340.4l74.4 105.2c2 2.8 4 3.6 6.4 3.6h18V524c0 33.2 27.2 61.6 59.6 61.6h310.4c31.6 0 56.8-27.6 56.8-61.6v-74.8h20.8c3.2 0 5.6-1.2 7.2-3.6l76-105.6c1.2-2 2-3.6 2-5.2V184h60.4c5.2 0 8.8-4 8.8-8.8s-4-8.8-8.8-8.8H143.2c-5.2 0-8.8 4-8.8 8.8s4 8.8 8.8 8.8h65.6v156.4z m-0.4-0.4z m468.8 227.6H367.2c-22.8 0-42-20-42-43.6v-74.8h391.2V524c0 24.4-17.2 43.6-39.2 43.6z m-332-98.4V524c0 12.4 10.4 23.6 22 23.6h310.4c12 0 19.2-12 19.2-23.6v-54.8H345.2z m405.2-38H294L226.8 331.6V184h595.6v148l-72 99.2z m-446-20H740l62.4-85.6V204H246.8v121.6l57.6 85.6z" fill="#ffffff" p-id="7255"></path><path d="M306.4 307.6h75.6c10.4 0 18.8-8.4 18.8-18.8s-8.4-18.8-18.8-18.8H306.4c-10.4 0-18.8 8.4-18.8 18.8s8.4 18.8 18.8 18.8z m175.2 0h75.6c10.4 0 18.8-8.4 18.8-18.8s-8.4-18.8-18.8-18.8h-75.6c-10.4 0-18.8 8.4-18.8 18.8s8.4 18.8 18.8 18.8z m175.2 0h75.6c10.4 0 18.8-8.4 18.8-18.8s-8.4-18.8-18.8-18.8h-75.6c-10.4 0-18.8 8.4-18.8 18.8s8.4 18.8 18.8 18.8z m-326.4 330.4c-78.4 61.2-53.2 112-34.4 149.2 18.4 36.4 30.4 60-28 102.4-8.4 6-10.4 18-4 26.4 3.6 5.2 9.6 7.6 15.2 7.6 4 0 7.6-1.2 11.2-3.6 84-61.2 58.4-112.8 39.2-150.4-18-36-30-60 24-102 8.4-6.4 9.6-18.4 3.2-26.8-6.4-8-18-9.2-26.4-2.8z m218 24c6.8-8 5.6-20-2.4-26.8-8-6.8-20-5.6-26.8 2.4-64 76-28.8 120.4-2.8 152.8 25.2 31.6 42 52.4-6 106-7.2 7.6-6.4 19.6 1.6 26.8 3.6 3.2 8 4.8 12.8 4.8 5.2 0 10.4-2 14-6.4 69.6-77.2 33.6-122.4 7.6-155.2-25.6-31.2-42.4-52 2-104.4z m216 102c-30.8-26-51.6-43.2-18.4-103.2 5.2-9.2 1.6-20.8-7.6-25.6-9.2-5.2-20.8-1.6-25.6 7.6-48 87.2-4.8 123.6 27.2 150.4 31.2 26 51.6 43.2 14.8 105.2-5.2 8.8-2.4 20.4 6.4 26 3.2 2 6.4 2.8 9.6 2.8 6.4 0 12.8-3.2 16.4-9.2 53.2-90 9.2-126.8-22.8-154z m0 0" fill="#ffffff" p-id="7256"></path><path d="M524.4 938c-7.2 0-14-2.8-19.2-7.6-12-10.8-12.8-29.2-2-40.8 42.4-47.2 30-62.4 5.6-93.2-26.4-33.2-66.4-83.2 2.8-165.6 10.4-12 28.8-13.6 40.8-3.6 12 10.4 13.6 28.8 3.6 40.8-38.8 46-26.4 61.6-2 92 26.8 33.6 67.6 84.4-8 168-5.6 6.4-13.2 10-21.6 10z m9.6-297.2c-2.4 0-5.2 1.2-6.8 3.2-58.8 70-28.8 107.2-2.8 140 25.6 32 47.2 59.2-6.4 119.2-3.2 3.6-3.2 9.2 0.8 12.8 3.6 3.2 9.6 2.8 12.4-0.8 64-71.2 34-108.8 7.2-142-25.2-31.6-47.2-58.8 2.4-117.6 3.2-4 2.8-9.6-1.2-12.8-1.6-1.6-3.6-2-5.6-2z m236.8 296c-5.2 0-10.4-1.6-14.8-4-13.6-8-18-26-10-39.6 32.4-54.8 17.6-67.2-12.4-92.4-32.4-27.2-81.6-68.8-29.2-163.2 3.6-6.8 10-11.6 17.2-14 7.6-2 15.2-1.2 22 2.4 14 7.6 19.2 25.2 11.2 39.2-29.2 52.8-14 65.6 16 90.8l-6.4 7.6 6.4-7.6c32.8 27.6 82.4 69.6 24.8 166.4-5.2 9.2-14.8 14.4-24.8 14.4z m-41.6-294c-0.8 0-1.6 0-2.4 0.4-2.4 0.8-4.4 2.4-5.2 4.4-44 80-7.6 110.8 24.8 138 31.2 26.4 58 48.8 16.8 118-2.4 4.4-1.2 9.6 3.2 12.4 4.4 2.4 9.6 0.8 12.4-3.2 48.8-82 12-113.2-20.8-140.8l6.4-7.6-6.4 7.6c-30.8-26-57.6-48.4-20.4-115.6 2.4-4.4 0.8-9.6-3.6-12-1.6-1.2-3.2-1.6-4.8-1.6zM279.6 933.6c-9.2 0-18-4.4-23.6-12-9.2-12.8-6.4-30.8 6.4-40.4 51.6-37.2 42.4-54.8 24.8-90-19.2-38-48-95.2 37.2-161.2 6-4.8 13.6-7.2 21.6-6 7.6 0.8 14.4 4.8 19.2 10.8 4.8 6 6.8 13.6 6 21.6-0.8 7.6-4.8 14.4-10.8 19.2-47.6 37.2-38.8 54.8-21.2 89.6 19.2 38.4 48.8 96.4-42.4 162.8-5.2 4-11.2 5.6-17.2 5.6zM342.4 644c-2 0-4 0.8-5.6 2-72 56-50.4 98.8-31.6 136.8 18.4 36.4 34 67.6-30.8 115.2-4 2.8-4.8 8.4-2 12.4s8.8 4.8 12.4 2c77.6-56.4 55.6-99.6 36.4-137.6-18-36-34-67.2 26.4-114.4 2-1.6 3.2-3.6 3.2-6 0.4-2.4-0.4-4.8-2-6.8s-3.6-2.8-5.6-3.2c0-0.4-0.4-0.4-0.8-0.4z m390-326.4h-75.6c-16 0-28.8-12.8-28.8-28.8s12.8-28.8 28.8-28.8h75.6c16 0 28.8 12.8 28.8 28.8s-12.8 28.8-28.8 28.8z m-75.6-38c-5.2 0-8.8 4-8.8 8.8s4 8.8 8.8 8.8h75.6c5.2 0 8.8-4 8.8-8.8s-4-8.8-8.8-8.8h-75.6z m-99.6 38h-75.6c-16 0-28.8-12.8-28.8-28.8s12.8-28.8 28.8-28.8h75.6c16 0 28.8 12.8 28.8 28.8s-12.8 28.8-28.8 28.8z m-75.6-38c-5.2 0-8.8 4-8.8 8.8s4 8.8 8.8 8.8h75.6c5.2 0 8.8-4 8.8-8.8s-4-8.8-8.8-8.8h-75.6z m-99.6 38H306.4c-16 0-28.8-12.8-28.8-28.8s12.8-28.8 28.8-28.8h75.6c16 0 28.8 12.8 28.8 28.8s-12.8 28.8-28.8 28.8z m-75.6-38c-5.2 0-8.8 4-8.8 8.8 0 4.8 4 8.8 8.8 8.8h75.6c5.2 0 8.8-4 8.8-8.8s-4-8.8-8.8-8.8H306.4z" fill="#ffffff" p-id="7257"></path></svg>