<?xml version="1.0" standalone="no"?><!DOCTYPE svg PUBLIC "-//W3C//DTD SVG 1.1//EN" "http://www.w3.org/Graphics/SVG/1.1/DTD/svg11.dtd"><svg t="1747382287888" class="icon" viewBox="0 0 1024 1024" version="1.1" xmlns="http://www.w3.org/2000/svg" p-id="12697" xmlns:xlink="http://www.w3.org/1999/xlink" width="24" height="24"><path d="M648.533333 597.333333c42.666667 0 76.8-38.4 76.8-85.333333s-34.133333-85.333333-76.8-85.333333-76.8 38.4-76.8 85.333333 38.4 85.333333 76.8 85.333333z m0 42.666667c-64 0-119.466667-59.733333-119.466666-128s51.2-128 119.466666-128 119.466667 59.733333 119.466667 128-51.2 128-119.466667 128z m145.066667-251.733333l8.533333 17.066666 38.4-21.333333-8.533333-17.066667c-38.4-76.8-102.4-136.533333-179.2-174.933333l-17.066667-8.533333-17.066666 38.4 17.066666 8.533333c64 34.133333 119.466667 89.6 157.866667 157.866667z m34.133333 268.8l8.533334-17.066667-38.4-21.333333-8.533334 17.066666c-34.133333 68.266667-93.866667 123.733333-162.133333 157.866667l-17.066667 8.533333 17.066667 38.4 17.066667-8.533333c81.066667-38.4 145.066667-98.133333 183.466666-174.933333z m29.866667 21.333333c-38.4 76.8-102.4 140.8-183.466667 174.933333l-17.066666 8.533334 17.066666 38.4 21.333334-8.533334c85.333333-42.666667 157.866667-110.933333 200.533333-196.266666l8.533333-17.066667-38.4-21.333333-8.533333 21.333333zM981.333333 512c0-260.266667-209.066667-469.333333-469.333333-469.333333S42.666667 251.733333 42.666667 512s209.066667 469.333333 469.333333 469.333333 469.333333-209.066667 469.333333-469.333333z m42.666667 0c0 281.6-230.4 512-512 512S0 793.6 0 512 230.4 0 512 0s512 230.4 512 512zM196.266667 366.933333l-12.8 21.333334 38.4 21.333333 8.533333-17.066667c34.133333-68.266667 93.866667-123.733333 162.133333-157.866666l17.066667-8.533334-17.066667-42.666666-17.066666 8.533333C298.666667 230.4 234.666667 290.133333 196.266667 366.933333z m-29.866667 311.466667l-8.533333-17.066667-38.4 21.333334 8.533333 17.066666c42.666667 85.333333 115.2 153.6 200.533333 196.266667l21.333334 8.533333 17.066666-38.4-17.066666-8.533333c-76.8-38.4-140.8-102.4-183.466667-179.2z m0-332.8c38.4-76.8 102.4-140.8 183.466667-179.2l17.066666-8.533333-17.066666-38.4-17.066667 8.533333c-85.333333 42.666667-157.866667 110.933333-200.533333 196.266667l-12.8 21.333333 38.4 21.333333 8.533333-21.333333z m64 290.133333l-8.533333-17.066666-38.4 21.333333 8.533333 17.066667c38.4 76.8 102.4 136.533333 179.2 174.933333l17.066667 8.533333 17.066666-38.4-17.066666-8.533333c-64-34.133333-119.466667-89.6-157.866667-157.866667zM375.466667 426.666667c29.866667 0 59.733333 21.333333 72.533333 51.2l38.4-17.066667C469.333333 413.866667 426.666667 384 375.466667 384 311.466667 384 256 443.733333 256 512s55.466667 128 119.466667 128c46.933333 0 93.866667-29.866667 110.933333-76.8l-38.4-17.066667c-12.8 29.866667-42.666667 51.2-72.533333 51.2-42.666667 0-76.8-38.4-76.8-85.333333s34.133333-85.333333 76.8-85.333333z m482.133333-81.066667l8.533333 17.066667 38.4-21.333334-8.533333-17.066666c-42.666667-85.333333-115.2-153.6-200.533333-196.266667l-17.066667-8.533333-17.066667 38.4 17.066667 8.533333c72.533333 38.4 136.533333 102.4 179.2 179.2zM938.666667 512c0 25.6-17.066667 42.666667-42.666667 42.666667s-42.666667-17.066667-42.666667-42.666667 17.066667-42.666667 42.666667-42.666667 42.666667 17.066667 42.666667 42.666667z" fill="#ffffff" p-id="12698"></path></svg>